#N canvas 2 1 2560 1326 10;
#X obj 33 64 netreceive -u -b;
#X obj 33 92 oscparse;
#X obj 668 264 tabplay~ snare_table;
#X msg 28 40 listen 9000;
#X obj 40 256 tabplay~ kick_table;
#X obj 34 121 list trim;
#X obj 170 1063 *~, f 4;
#X obj 428 1065 *~;
#X obj 300 1065 *~;
#X obj 793 1172 +~;
#X obj 179 1036 line~;
#X obj 207 988 pack f 20;
#X obj 321 1029 line~;
#X obj 325 989 pack f 20;
#X obj 446 1022 line~;
#X obj 475 982 pack f 20;
#N canvas 4 64 2560 1326 PATRONES 1;
#X obj 31 148 bng 18 250 50 0 empty empty empty 0 -9 0 10 #fcfcfc #000000 #000000;
#X obj 1003 26 table snare_table 44100;
#X obj 56 268 soundfiler;
#X obj 56 223 soundfiler;
#X obj 49 309 soundfiler;
#X obj 386 146 bng 18 250 50 0 empty empty empty 0 -9 0 10 #fcfcfc #000000 #000000;
#X obj 755 27 table kick_table 44100;
#X obj 7 10 inlet;
#X obj 38 403 soundfiler;
#X obj 41 352 soundfiler;
#X obj 35 450 soundfiler;
#X obj 30 498 soundfiler;
#X obj 876 53 table bass_table 44100;
#X obj 1328 23 table hihat_clo_table 44100;
#X obj 1158 26 table hihat_op_table 44100;
#X obj 1506 23 table synth1_table 44100;
#X obj 1841 26 table synth3_table 44100;
#X obj 1671 26 table synth2_table 44100;
#X obj 434 265 soundfiler;
#X obj 434 220 soundfiler;
#X obj 427 306 soundfiler;
#X obj 416 400 soundfiler;
#X obj 419 349 soundfiler;
#X obj 413 447 soundfiler;
#X obj 408 495 soundfiler;
#X obj 816 265 soundfiler;
#X obj 816 220 soundfiler;
#X obj 809 306 soundfiler;
#X obj 798 400 soundfiler;
#X obj 801 349 soundfiler;
#X obj 795 447 soundfiler;
#X obj 790 495 soundfiler;
#X obj 768 149 bng 18 250 50 0 empty empty empty 0 -9 0 10 #fcfcfc #000000 #000000;
#X obj 1221 263 soundfiler;
#X obj 1221 218 soundfiler;
#X obj 1214 304 soundfiler;
#X obj 1203 398 soundfiler;
#X obj 1206 347 soundfiler;
#X obj 1200 445 soundfiler;
#X obj 1195 493 soundfiler;
#X obj 1169 166 bng 18 250 50 0 empty empty empty 0 -9 0 10 #fcfcfc #000000 #000000;
#X obj 1611 264 soundfiler;
#X obj 1611 219 soundfiler;
#X obj 1604 305 soundfiler;
#X obj 1593 399 soundfiler;
#X obj 1596 348 soundfiler;
#X obj 1590 446 soundfiler;
#X obj 1585 494 soundfiler;
#X obj 1578 148 bng 18 250 50 0 empty empty empty 0 -9 0 10 #fcfcfc #000000 #000000;
#X obj 1997 255 soundfiler;
#X obj 1997 210 soundfiler;
#X obj 1990 296 soundfiler;
#X obj 1979 390 soundfiler;
#X obj 1982 339 soundfiler;
#X obj 1976 437 soundfiler;
#X obj 1971 485 soundfiler;
#X obj 55 692 soundfiler;
#X obj 55 647 soundfiler;
#X obj 48 733 soundfiler;
#X obj 37 827 soundfiler;
#X obj 40 776 soundfiler;
#X obj 34 874 soundfiler;
#X obj 29 922 soundfiler;
#X obj 437 681 soundfiler;
#X obj 437 636 soundfiler;
#X obj 430 722 soundfiler;
#X obj 419 816 soundfiler;
#X obj 422 765 soundfiler;
#X obj 416 863 soundfiler;
#X obj 411 914 soundfiler;
#X obj 810 672 soundfiler;
#X obj 810 627 soundfiler;
#X obj 803 713 soundfiler;
#X obj 792 807 soundfiler;
#X obj 795 756 soundfiler;
#X obj 789 854 soundfiler;
#X obj 784 902 soundfiler;
#X obj 1180 669 soundfiler;
#X obj 1180 624 soundfiler;
#X obj 1173 710 soundfiler;
#X obj 1162 804 soundfiler;
#X obj 1165 753 soundfiler;
#X obj 1159 851 soundfiler;
#X obj 1158 896 soundfiler;
#X obj 1578 664 soundfiler;
#X obj 1578 619 soundfiler;
#X obj 1571 705 soundfiler;
#X obj 1560 799 soundfiler;
#X obj 1563 748 soundfiler;
#X obj 1557 846 soundfiler;
#X obj 1552 894 soundfiler;
#X obj 1969 652 soundfiler;
#X obj 1969 607 soundfiler;
#X obj 1962 693 soundfiler;
#X obj 1951 787 soundfiler;
#X obj 1954 736 soundfiler;
#X obj 1948 834 soundfiler;
#X obj 1943 882 soundfiler;
#X obj 185 1046 soundfiler;
#X obj 185 1001 soundfiler;
#X obj 178 1087 soundfiler;
#X obj 167 1181 soundfiler;
#X obj 170 1130 soundfiler;
#X obj 164 1228 soundfiler;
#X obj 159 1276 soundfiler;
#X obj 694 1034 soundfiler;
#X obj 694 989 soundfiler;
#X obj 687 1075 soundfiler;
#X obj 676 1169 soundfiler;
#X obj 679 1118 soundfiler;
#X obj 673 1216 soundfiler;
#X obj 668 1264 soundfiler;
#X obj 1108 1037 soundfiler;
#X obj 1108 992 soundfiler;
#X obj 1101 1078 soundfiler;
#X obj 1090 1172 soundfiler;
#X obj 1093 1121 soundfiler;
#X obj 1087 1219 soundfiler;
#X obj 1082 1267 soundfiler;
#X obj 1563 1040 soundfiler;
#X obj 1563 995 soundfiler;
#X obj 1556 1081 soundfiler;
#X obj 1545 1175 soundfiler;
#X obj 1548 1124 soundfiler;
#X obj 1542 1222 soundfiler;
#X obj 1537 1270 soundfiler;
#X obj 1965 139 bng 18 250 50 0 empty empty empty 0 -9 0 10 #fcfcfc #000000 #000000;
#X obj 14 576 bng 18 250 50 0 empty empty empty 0 -9 0 10 #fcfcfc #000000 #000000;
#X obj 396 556 bng 18 250 50 0 empty empty empty 0 -9 0 10 #fcfcfc #000000 #000000;
#X obj 779 563 bng 18 250 50 0 empty empty empty 0 -9 0 10 #fcfcfc #000000 #000000;
#X obj 1150 562 bng 18 250 50 0 empty empty empty 0 -9 0 10 #fcfcfc #000000 #000000;
#X obj 1532 551 bng 18 250 50 0 empty empty empty 0 -9 0 10 #fcfcfc #000000 #000000;
#X obj 1933 546 bng 18 250 50 0 empty empty empty 0 -9 0 10 #fcfcfc #000000 #000000;
#X obj 157 932 bng 18 250 50 0 empty empty empty 0 -9 0 10 #fcfcfc #000000 #000000;
#X obj 612 937 bng 18 250 50 0 empty empty empty 0 -9 0 10 #fcfcfc #000000 #000000;
#X obj 1063 931 bng 18 250 50 0 empty empty empty 0 -9 0 10 #fcfcfc #000000 #000000;
#X obj 1510 940 bng 18 250 50 0 empty empty empty 0 -9 0 10 #fcfcfc #000000 #000000;
#X obj 39 59 select 1 2 3 4 5 6 7 8 9 10 11 12 13 14 15 16;
#X msg 49 199 read -resize patron1/sample1.wav kick_table;
#X msg 51 246 read -resize patron1/sample2.wav bass_table;
#X msg 49 286 read -resize patron1/sample3.wav snare_table;
#X msg 40 329 read -resize patron1/sample4.wav hihat_op_table;
#X msg 34 372 read -resize patron1/sample5.wav hihat_clo_table;
#X msg 31 427 read -resize patron1/sample6.wav synth1_table;
#X msg 26 473 read -resize patron1/sample7.wav synth2_table;
#X msg 404 470 read -resize patron2/sample7.wav synth2_table;
#X msg 409 424 read -resize patron2/sample6.wav synth1_table;
#X msg 412 369 read -resize patron2/sample5.wav hihat_clo_table;
#X msg 418 326 read -resize patron2/sample4.wav hihat_op_table;
#X msg 427 283 read -resize patron2/sample3.wav snare_table;
#X msg 429 243 read -resize patron2/sample2.wav bass_table;
#X msg 430 196 read -resize patron2/sample1.wav kick_table;
#X msg 811 243 read -resize patron3/sample2.wav bass_table;
#X msg 809 283 read -resize patron3/sample3.wav snare_table;
#X msg 800 326 read -resize patron3/sample4.wav hihat_op_table;
#X msg 794 368 read -resize patron3/sample5.wav hihat_clo_table;
#X msg 791 424 read -resize patron3/sample6.wav synth1_table;
#X msg 786 470 read -resize patron3/sample7.wav synth2_table;
#X msg 1191 468 read -resize patron4/sample7.wav synth2_table;
#X msg 1197 422 read -resize patron4/sample6.wav synth1_table;
#X msg 1199 367 read -resize patron4/sample5.wav hihat_clo_table;
#X msg 1205 324 read -resize patron4/sample4.wav hihat_op_table;
#X msg 1214 281 read -resize patron4/sample3.wav snare_table;
#X msg 1216 241 read -resize patron4/sample2.wav bass_table;
#X msg 1219 194 read -resize patron4/sample1.wav kick_table;
#X msg 1609 195 read -resize patron5/sample1.wav kick_table;
#X msg 1606 242 read -resize patron5/sample2.wav bass_table;
#X msg 1604 282 read -resize patron5/sample3.wav snare_table;
#X msg 1597 326 read -resize patron5/sample4.wav hihat_op_table;
#X msg 1589 368 read -resize patron5/sample5.wav hihat_clo_table;
#X msg 1587 423 read -resize patron5/sample6.wav synth1_table;
#X msg 1581 469 read -resize patron5/sample7.wav synth2_table;
#X msg 1995 186 read -resize patron6/sample1.wav kick_table;
#X msg 1992 233 read -resize patron6/sample2.wav bass_table;
#X msg 1990 273 read -resize patron6/sample3.wav snare_table;
#X msg 1981 316 read -resize patron6/sample4.wav hihat_op_table;
#X msg 1975 359 read -resize patron6/sample5.wav hihat_clo_table;
#X msg 1973 414 read -resize patron6/sample6.wav synth1_table;
#X msg 1967 460 read -resize patron6/sample7.wav synth2_table;
#X msg 1967 583 read -resize patron12/sample1.wav kick_table;
#X msg 1964 630 read -resize patron12/sample2.wav bass_table;
#X msg 1962 670 read -resize patron12/sample3.wav snare_table;
#X msg 1953 713 read -resize patron12/sample4.wav hihat_op_table;
#X msg 1945 756 read -resize patron12/sample5.wav hihat_clo_table;
#X msg 1939 857 read -resize patron12/sample7.wav synth2_table;
#X msg 1945 811 read -resize patron12/sample6.wav synth1_table;
#X msg 1574 595 read -resize patron11/sample1.wav kick_table;
#X msg 1573 642 read -resize patron11/sample2.wav bass_table;
#X msg 1571 682 read -resize patron11/sample3.wav snare_table;
#X msg 1562 725 read -resize patron11/sample4.wav hihat_op_table;
#X msg 1554 767 read -resize patron11/sample5.wav hihat_clo_table;
#X msg 1553 823 read -resize patron11/sample6.wav synth1_table;
#X msg 1548 869 read -resize patron11/sample7.wav synth2_table;
#X msg 1150 874 read -resize patron10/sample7.wav synth2_table;
#X msg 1155 828 read -resize patron10/sample6.wav synth1_table;
#X msg 1158 773 read -resize patron10/sample5.wav hihat_clo_table;
#X msg 1164 730 read -resize patron10/sample4.wav hihat_op_table;
#X msg 1173 687 read -resize patron10/sample3.wav snare_table;
#X msg 1175 647 read -resize patron10/sample2.wav bass_table;
#X msg 1178 602 read -resize patron10/sample1.wav kick_table;
#X msg 806 603 read -resize patron9/sample1.wav kick_table;
#X msg 805 650 read -resize patron9/sample2.wav bass_table;
#X msg 803 690 read -resize patron9/sample3.wav snare_table;
#X msg 794 733 read -resize patron9/sample4.wav hihat_op_table;
#X msg 788 776 read -resize patron9/sample5.wav hihat_clo_table;
#X msg 785 831 read -resize patron9/sample6.wav synth1_table;
#X msg 778 876 read -resize patron9/sample7.wav synth2_table;
#X msg 407 886 read -resize patron8/sample7.wav synth2_table;
#X msg 413 840 read -resize patron8/sample6.wav synth1_table;
#X msg 417 789 read -resize patron8/sample5.wav hihat_clo_table;
#X msg 423 746 read -resize patron8/sample4.wav hihat_op_table;
#X msg 430 699 read -resize patron8/sample3.wav snare_table;
#X msg 435 612 read -resize patron8/sample1.wav kick_table;
#X msg 57 622 read -resize patron7/sample1.wav kick_table;
#X msg 50 670 read -resize patron7/sample2.wav bass_table;
#X msg 48 710 read -resize patron7/sample3.wav snare_table;
#X msg 39 753 read -resize patron7/sample4.wav hihat_op_table;
#X msg 33 796 read -resize patron7/sample5.wav hihat_clo_table;
#X msg 31 851 read -resize patron7/sample6.wav synth1_table;
#X msg 25 897 read -resize patron7/sample7.wav synth2_table;
#X msg 183 977 read -resize patron13/sample1.wav kick_table;
#X msg 180 1024 read -resize patron13/sample2.wav bass_table;
#X msg 178 1064 read -resize patron13/sample3.wav snare_table;
#X msg 169 1107 read -resize patron13/sample4.wav hihat_op_table;
#X msg 163 1150 read -resize patron13/sample5.wav hihat_clo_table;
#X msg 161 1205 read -resize patron13/sample6.wav synth1_table;
#X msg 692 965 read -resize patron14/sample1.wav kick_table;
#X msg 689 1012 read -resize patron14/sample2.wav bass_table;
#X msg 687 1052 read -resize patron14/sample3.wav snare_table;
#X msg 678 1095 read -resize patron14/sample4.wav hihat_op_table;
#X msg 672 1138 read -resize patron14/sample5.wav hihat_clo_table;
#X msg 670 1193 read -resize patron14/sample6.wav synth1_table;
#X msg 664 1239 read -resize patron14/sample7.wav synth2_table;
#X msg 1110 967 read -resize patron15/sample1.wav kick_table;
#X msg 1103 1015 read -resize patron15/sample2.wav bass_table;
#X msg 1101 1055 read -resize patron15/sample3.wav snare_table;
#X msg 1094 1099 read -resize patron15/sample4.wav hihat_op_table;
#X msg 1086 1141 read -resize patron15/sample5.wav hihat_clo_table;
#X msg 1084 1196 read -resize patron15/sample6.wav synth1_table;
#X msg 1078 1242 read -resize patron15/sample7.wav synth2_table;
#X msg 1561 971 read -resize patron16/sample1.wav kick_table;
#X msg 1558 1018 read -resize patron16/sample2.wav bass_table;
#X msg 1556 1058 read -resize patron16/sample3.wav snare_table;
#X msg 1547 1101 read -resize patron16/sample4.wav hihat_op_table;
#X msg 1541 1144 read -resize patron16/sample5.wav hihat_clo_table;
#X msg 1533 1245 read -resize patron16/sample7.wav synth2_table;
#X msg 812 196 read -resize patron3/sample1.wav kick_table;
#X msg 432 659 read -resize patron8/sample2.wav bass_table;
#X msg 155 1251 read -resize patron13/sample7.wav synth2_table;
#X msg 1539 1199 read -resize patron16/sample6.wav synth1_table;
#X connect 0 0 138 0;
#X connect 0 0 139 0;
#X connect 0 0 140 0;
#X connect 0 0 141 0;
#X connect 0 0 142 0;
#X connect 0 0 143 0;
#X connect 0 0 144 0;
#X connect 5 0 151 0;
#X connect 5 0 150 0;
#X connect 5 0 149 0;
#X connect 5 0 148 0;
#X connect 5 0 147 0;
#X connect 5 0 146 0;
#X connect 5 0 145 0;
#X connect 7 0 137 0;
#X connect 32 0 246 0;
#X connect 32 0 154 0;
#X connect 32 0 153 0;
#X connect 32 0 156 0;
#X connect 32 0 157 0;
#X connect 32 0 152 0;
#X connect 32 0 155 0;
#X connect 40 0 164 0;
#X connect 40 0 163 0;
#X connect 40 0 162 0;
#X connect 40 0 161 0;
#X connect 40 0 158 0;
#X connect 40 0 159 0;
#X connect 40 0 160 0;
#X connect 48 0 165 0;
#X connect 48 0 166 0;
#X connect 48 0 167 0;
#X connect 48 0 168 0;
#X connect 48 0 169 0;
#X connect 48 0 170 0;
#X connect 48 0 171 0;
#X connect 126 0 172 0;
#X connect 126 0 173 0;
#X connect 126 0 175 0;
#X connect 126 0 176 0;
#X connect 126 0 178 0;
#X connect 126 0 177 0;
#X connect 126 0 174 0;
#X connect 127 0 213 0;
#X connect 127 0 214 0;
#X connect 127 0 215 0;
#X connect 127 0 216 0;
#X connect 127 0 217 0;
#X connect 127 0 218 0;
#X connect 127 0 219 0;
#X connect 128 0 212 0;
#X connect 128 0 247 0;
#X connect 128 0 211 0;
#X connect 128 0 210 0;
#X connect 128 0 209 0;
#X connect 128 0 208 0;
#X connect 128 0 207 0;
#X connect 129 0 200 0;
#X connect 129 0 201 0;
#X connect 129 0 202 0;
#X connect 129 0 203 0;
#X connect 129 0 204 0;
#X connect 129 0 205 0;
#X connect 129 0 206 0;
#X connect 130 0 199 0;
#X connect 130 0 198 0;
#X connect 130 0 197 0;
#X connect 130 0 196 0;
#X connect 130 0 195 0;
#X connect 130 0 194 0;
#X connect 130 0 193 0;
#X connect 131 0 186 0;
#X connect 131 0 187 0;
#X connect 131 0 188 0;
#X connect 131 0 189 0;
#X connect 131 0 190 0;
#X connect 131 0 191 0;
#X connect 131 0 192 0;
#X connect 132 0 179 0;
#X connect 132 0 180 0;
#X connect 132 0 181 0;
#X connect 132 0 182 0;
#X connect 132 0 183 0;
#X connect 132 0 185 0;
#X connect 132 0 184 0;
#X connect 133 0 220 0;
#X connect 133 0 221 0;
#X connect 133 0 222 0;
#X connect 133 0 223 0;
#X connect 133 0 224 0;
#X connect 133 0 225 0;
#X connect 133 0 248 0;
#X connect 134 0 226 0;
#X connect 134 0 227 0;
#X connect 134 0 228 0;
#X connect 134 0 229 0;
#X connect 134 0 230 0;
#X connect 134 0 231 0;
#X connect 134 0 232 0;
#X connect 135 0 233 0;
#X connect 135 0 234 0;
#X connect 135 0 235 0;
#X connect 135 0 236 0;
#X connect 135 0 237 0;
#X connect 135 0 238 0;
#X connect 135 0 239 0;
#X connect 136 0 240 0;
#X connect 136 0 241 0;
#X connect 136 0 242 0;
#X connect 136 0 243 0;
#X connect 136 0 244 0;
#X connect 136 0 249 0;
#X connect 136 0 245 0;
#X connect 137 0 0 0;
#X connect 137 1 5 0;
#X connect 137 2 32 0;
#X connect 137 3 40 0;
#X connect 137 4 48 0;
#X connect 137 5 126 0;
#X connect 137 6 127 0;
#X connect 137 7 128 0;
#X connect 137 8 129 0;
#X connect 137 9 130 0;
#X connect 137 10 131 0;
#X connect 137 11 132 0;
#X connect 137 12 133 0;
#X connect 137 13 134 0;
#X connect 137 14 135 0;
#X connect 137 15 136 0;
#X connect 138 0 3 0;
#X connect 139 0 2 0;
#X connect 140 0 4 0;
#X connect 141 0 9 0;
#X connect 142 0 8 0;
#X connect 143 0 10 0;
#X connect 144 0 11 0;
#X connect 145 0 24 0;
#X connect 146 0 23 0;
#X connect 147 0 21 0;
#X connect 148 0 22 0;
#X connect 149 0 20 0;
#X connect 150 0 18 0;
#X connect 151 0 19 0;
#X connect 152 0 25 0;
#X connect 153 0 27 0;
#X connect 154 0 29 0;
#X connect 155 0 28 0;
#X connect 156 0 30 0;
#X connect 157 0 31 0;
#X connect 158 0 39 0;
#X connect 159 0 38 0;
#X connect 160 0 36 0;
#X connect 161 0 37 0;
#X connect 162 0 35 0;
#X connect 163 0 33 0;
#X connect 164 0 34 0;
#X connect 165 0 42 0;
#X connect 166 0 41 0;
#X connect 167 0 43 0;
#X connect 168 0 45 0;
#X connect 169 0 44 0;
#X connect 170 0 46 0;
#X connect 171 0 47 0;
#X connect 172 0 50 0;
#X connect 173 0 49 0;
#X connect 174 0 51 0;
#X connect 175 0 53 0;
#X connect 176 0 52 0;
#X connect 177 0 54 0;
#X connect 178 0 55 0;
#X connect 179 0 92 0;
#X connect 180 0 91 0;
#X connect 181 0 93 0;
#X connect 182 0 95 0;
#X connect 183 0 94 0;
#X connect 184 0 97 0;
#X connect 185 0 96 0;
#X connect 186 0 85 0;
#X connect 187 0 84 0;
#X connect 188 0 86 0;
#X connect 189 0 88 0;
#X connect 190 0 87 0;
#X connect 191 0 89 0;
#X connect 192 0 90 0;
#X connect 193 0 83 0;
#X connect 194 0 82 0;
#X connect 195 0 80 0;
#X connect 196 0 81 0;
#X connect 197 0 79 0;
#X connect 198 0 77 0;
#X connect 199 0 78 0;
#X connect 200 0 71 0;
#X connect 201 0 70 0;
#X connect 202 0 72 0;
#X connect 203 0 74 0;
#X connect 204 0 73 0;
#X connect 205 0 75 0;
#X connect 206 0 76 0;
#X connect 207 0 69 0;
#X connect 208 0 68 0;
#X connect 209 0 66 0;
#X connect 209 0 210 0;
#X connect 210 0 67 0;
#X connect 211 0 65 0;
#X connect 212 0 64 0;
#X connect 213 0 57 0;
#X connect 214 0 56 0;
#X connect 215 0 58 0;
#X connect 216 0 60 0;
#X connect 217 0 59 0;
#X connect 218 0 61 0;
#X connect 219 0 62 0;
#X connect 220 0 99 0;
#X connect 221 0 98 0;
#X connect 222 0 100 0;
#X connect 223 0 102 0;
#X connect 224 0 101 0;
#X connect 225 0 103 0;
#X connect 226 0 106 0;
#X connect 227 0 105 0;
#X connect 228 0 107 0;
#X connect 229 0 109 0;
#X connect 230 0 108 0;
#X connect 231 0 110 0;
#X connect 232 0 111 0;
#X connect 233 0 113 0;
#X connect 234 0 112 0;
#X connect 235 0 114 0;
#X connect 236 0 116 0;
#X connect 237 0 115 0;
#X connect 238 0 117 0;
#X connect 239 0 118 0;
#X connect 240 0 120 0;
#X connect 241 0 119 0;
#X connect 242 0 121 0;
#X connect 243 0 123 0;
#X connect 244 0 122 0;
#X connect 245 0 125 0;
#X connect 246 0 26 0;
#X connect 247 0 63 0;
#X connect 248 0 104 0;
#X connect 249 0 124 0;
#X restore 1376 143 pd PATRONES;
#X obj 322 251 tabplay~ hihat_op_table;
#X obj 489 264 tabplay~ hihat_clo_table;
#X obj 184 251 tabplay~ bass_table;
#X obj 659 1066 *~;
#X obj 677 1023 line~;
#X obj 676 977 pack f 20;
#X obj 986 1177 +~;
#X obj 183 134 select 1 2 3 4 5 6 7;
#X obj 783 1063 *~;
#X obj 801 1020 line~;
#X obj 807 975 pack f 20;
#X obj 901 1064 *~;
#X obj 932 1022 line~;
#X obj 951 980 pack f 20;
#X obj 2082 311 route 1 2 3 4 5 6 7;
#X obj 2176 945 route 1 2 3 4 5 6 7;
#X obj 823 257 tabplay~ synth1_table;
#X obj 2078 344 route 1 2 3 4 5 6 7;
#X obj 18 493 dec_crushing;
#X obj 17 361 lowboost;
#X obj 17 415 highboost;
#X obj 18 451 driveclip;
#X obj 18 649 chorus;
#X obj 18 569 pitch;
#X obj 20 699 flanger;
#X obj 17 533 downsample;
#X obj 341 507 dec_crushing;
#X obj 339 363 lowboost;
#X obj 340 420 highboost;
#X obj 343 463 driveclip;
#X obj 341 654 chorus;
#X obj 341 574 pitch;
#X obj 342 695 flanger;
#X obj 340 538 downsample;
#X obj 678 514 dec_crushing;
#X obj 676 379 lowboost;
#X obj 677 436 highboost;
#X obj 680 479 driveclip;
#X obj 678 670 chorus;
#X obj 678 590 pitch;
#X obj 679 711 flanger;
#X obj 677 554 downsample;
#X obj 994 521 dec_crushing;
#X obj 992 386 lowboost;
#X obj 993 443 highboost;
#X obj 996 486 driveclip;
#X obj 994 677 chorus;
#X obj 994 597 pitch;
#X obj 995 718 flanger;
#X obj 993 561 downsample;
#X obj 1320 515 dec_crushing;
#X obj 1318 380 lowboost;
#X obj 1319 437 highboost;
#X obj 1322 480 driveclip;
#X obj 1320 671 chorus;
#X obj 1320 591 pitch;
#X obj 1321 712 flanger;
#X obj 1319 555 downsample;
#X obj 1613 510 dec_crushing;
#X obj 1611 375 lowboost;
#X obj 1612 432 highboost;
#X obj 1615 475 driveclip;
#X obj 1613 666 chorus;
#X obj 1611 589 pitch;
#X obj 1614 707 flanger;
#X obj 1612 550 downsample;
#X obj 1905 505 dec_crushing;
#X obj 1903 370 lowboost;
#X obj 1904 427 highboost;
#X obj 1907 470 driveclip;
#X obj 1905 661 chorus;
#X obj 1905 581 pitch;
#X obj 1906 702 flanger;
#X obj 1904 545 downsample;
#X obj 2078 386 route 1 2 3 4 5 6 7;
#X obj 2071 518 route 1 2 3 4 5 6 7;
#X obj 2077 431 route 1 2 3 4 5 6 7;
#X obj 2077 470 route 1 2 3 4 5 6 7;
#X obj 2240 480 route 1 2 3 4 5 6 7;
#X obj 2074 547 route 1 2 3 4 5 6 7;
#X obj 2328 604 route 1 2 3 4 5 6 7;
#X obj 2202 600 route 1 2 3 4 5 6 7;
#X obj 2064 638 route 1 2 3 4 5 6 7;
#X obj 2072 676 route 1 2 3 4 5 6 7;
#X obj 2109 710 route 1 2 3 4 5 6 7;
#X obj 986 257 tabplay~ synth2_table;
#X obj 2321 579 route 1 2 3 4 5 6 7;
#X obj 2115 831 route 1 2 3 4 5 6 7;
#X obj 7 1037 *~;
#X obj 26 1024 line~;
#X obj 30 985 pack f 20;
#X obj 144 932 *~;
#X obj 162 903 line~, f 6;
#X obj 165 870 pack f 20;
#X obj 316 926 *~;
#X obj 333 901 line~;
#X obj 339 875 pack f 20;
#X obj 458 927 *~;
#X obj 468 893 line~;
#X obj 474 867 pack f 20;
#X obj 661 921 *~;
#X obj 678 896 line~;
#X obj 684 870 pack f 20;
#X obj 805 920 *~;
#X obj 813 893 line~;
#X obj 819 867 pack f 20;
#X obj 961 914 *~;
#X obj 980 894 line~;
#X obj 994 868 pack f 20;
#X obj 11 933 *~;
#X obj 29 903 line~;
#X obj 32 873 pack f 20;
#X obj 33 12 loadbang;
#X obj 22 768 compress;
#X obj 339 776 compress;
#X obj 682 776 compress;
#X obj 1000 785 compress;
#X obj 1308 781 compress;
#X obj 1598 786 compress;
#X obj 1909 782 compress;
#X obj 2113 768 route 1 2 3 4 5 6 7;
#X text 2211 -12 CON el out~ de else parece que no;
#X msg 143 39 \; pd dsp 1;
#X obj 16 615 lfooptim;
#X obj 835 1273 else/out~ 1 0;
#X obj 236 93 route trigger volumen filter lowboost highboost driveclip decimator crushing downsample pitch lfo_mode lfo_depth lfo_speed chorus flanger reverb compress accent pan pattern master_vol, f 186;
#X obj 2105 795 route 1 2 3 4 5 6 7;
#X obj 19 805 pan;
#X obj 338 813 pan;
#X obj 680 813 pan;
#X obj 989 818 pan;
#X obj 1308 821 pan;
#X obj 1592 819 pan;
#X obj 1909 818 pan;
#X obj 1247 1073 *~;
#X obj 1507 1061 *~;
#X obj 1358 1071 *~;
#X obj 1270 1053 line~;
#X obj 1294 980 pack f 20;
#X obj 1399 1027 line~;
#X obj 1415 987 pack f 20;
#X obj 1536 1020 line~;
#X obj 1565 980 pack f 20;
#X obj 1738 1059 *~;
#X obj 1767 1025 line~;
#X obj 1766 979 pack f 20;
#X obj 1873 1065 *~;
#X obj 1891 1022 line~;
#X obj 1897 977 pack f 20;
#X obj 1991 1066 *~;
#X obj 2022 1024 line~;
#X obj 2041 982 pack f 20;
#X obj 1089 1056 *~;
#X obj 1112 1022 line~;
#X obj 1106 981 pack f 20;
#X obj 1294 939 *~;
#X obj 1312 910 line~, f 6;
#X obj 1315 877 pack f 20;
#X obj 1407 936 *~;
#X obj 1424 911 line~;
#X obj 1430 885 pack f 20;
#X obj 1549 937 *~;
#X obj 1583 908 line~;
#X obj 1589 882 pack f 20;
#X obj 1752 931 *~;
#X obj 1769 906 line~;
#X obj 1775 880 pack f 20;
#X obj 1896 930 *~;
#X obj 1918 902 line~;
#X obj 1924 876 pack f 20;
#X obj 2052 924 *~;
#X obj 2071 904 line~;
#X obj 2085 878 pack f 20;
#X obj 1102 943 *~;
#X obj 1120 913 line~;
#X obj 1123 883 pack f 20;
#X text 715 1167 IZQUIERDA;
#X text 1011 1177 DERECHA;
#X obj 19 321 filter;
#X obj 337 321 filter;
#X obj 674 337 filter;
#X obj 990 344 filter;
#X obj 1316 338 filter;
#X obj 1609 333 filter;
#X obj 1901 328 filter;
#X obj 22 735 reverb;
#X obj 338 743 reverb;
#X obj 682 748 reverb;
#X obj 993 756 reverb;
#X obj 1319 745 reverb;
#X obj 1611 753 reverb;
#X obj 1902 749 reverb;
#X msg 880 1206 set \$1;
#X obj 345 622 lfooptim;
#X obj 1907 625 lfooptim;
#X obj 1610 627 lfooptim;
#X connect 0 0 1 0;
#X connect 1 0 5 0;
#X connect 2 0 199 0;
#X connect 3 0 0 0;
#X connect 4 0 195 0;
#X connect 5 0 142 0;
#X connect 6 0 23 0;
#X connect 7 0 23 0;
#X connect 8 0 9 0;
#X connect 9 0 141 0;
#X connect 10 0 6 1;
#X connect 11 0 10 0;
#X connect 12 0 8 1;
#X connect 13 0 12 0;
#X connect 14 0 7 1;
#X connect 15 0 14 0;
#X connect 17 0 197 0;
#X connect 18 0 198 0;
#X connect 19 0 196 0;
#X connect 20 0 9 0;
#X connect 21 0 20 1;
#X connect 22 0 21 0;
#X connect 23 0 141 1;
#X connect 24 0 4 0;
#X connect 24 1 19 0;
#X connect 24 2 17 0;
#X connect 24 3 18 0;
#X connect 24 4 2 0;
#X connect 24 5 33 0;
#X connect 24 6 102 0;
#X connect 25 0 23 0;
#X connect 26 0 25 1;
#X connect 27 0 26 0;
#X connect 28 0 9 0;
#X connect 29 0 28 1;
#X connect 30 0 29 0;
#X connect 31 0 195 1;
#X connect 31 1 196 1;
#X connect 31 2 197 1;
#X connect 31 3 198 1;
#X connect 31 4 199 1;
#X connect 31 5 200 1;
#X connect 31 6 201 1;
#X connect 32 0 107 0;
#X connect 32 0 11 0;
#X connect 32 1 15 0;
#X connect 32 1 13 0;
#X connect 32 2 27 0;
#X connect 32 2 22 0;
#X connect 32 3 171 0;
#X connect 32 3 30 0;
#X connect 32 4 157 0;
#X connect 32 4 155 0;
#X connect 32 5 162 0;
#X connect 32 5 159 0;
#X connect 32 6 168 0;
#X connect 32 6 165 0;
#X connect 33 0 200 0;
#X connect 34 0 36 1;
#X connect 34 1 44 1;
#X connect 34 2 52 1;
#X connect 34 3 60 1;
#X connect 34 4 68 1;
#X connect 34 5 76 1;
#X connect 34 6 84 1;
#X connect 35 0 42 0;
#X connect 36 0 37 0;
#X connect 37 0 38 0;
#X connect 38 0 35 0;
#X connect 39 0 41 0;
#X connect 40 0 140 0;
#X connect 41 0 202 0;
#X connect 42 0 40 0;
#X connect 43 0 50 0;
#X connect 44 0 45 0;
#X connect 45 0 46 0;
#X connect 46 0 43 0;
#X connect 47 0 49 0;
#X connect 48 0 210 0;
#X connect 49 0 203 0;
#X connect 50 0 48 0;
#X connect 51 0 58 0;
#X connect 52 0 53 0;
#X connect 53 0 54 0;
#X connect 54 0 51 0;
#X connect 55 0 57 0;
#X connect 56 0 55 0;
#X connect 57 0 204 0;
#X connect 58 0 56 0;
#X connect 59 0 66 0;
#X connect 60 0 61 0;
#X connect 61 0 62 0;
#X connect 62 0 59 0;
#X connect 63 0 65 0;
#X connect 64 0 63 0;
#X connect 65 0 205 0;
#X connect 66 0 64 0;
#X connect 67 0 74 0;
#X connect 68 0 69 0;
#X connect 69 0 70 0;
#X connect 70 0 67 0;
#X connect 71 0 73 0;
#X connect 72 0 71 0;
#X connect 73 0 206 0;
#X connect 74 0 72 0;
#X connect 75 0 82 0;
#X connect 76 0 77 0;
#X connect 77 0 78 0;
#X connect 78 0 75 0;
#X connect 79 0 81 0;
#X connect 80 0 212 0;
#X connect 81 0 207 0;
#X connect 82 0 80 0;
#X connect 83 0 90 0;
#X connect 84 0 85 0;
#X connect 85 0 86 0;
#X connect 86 0 83 0;
#X connect 87 0 89 0;
#X connect 88 0 211 0;
#X connect 89 0 208 0;
#X connect 90 0 88 0;
#X connect 91 0 37 1;
#X connect 91 1 45 1;
#X connect 91 2 53 1;
#X connect 91 3 61 1;
#X connect 91 4 69 1;
#X connect 91 5 77 1;
#X connect 91 6 85 1;
#X connect 92 0 42 1;
#X connect 92 1 50 1;
#X connect 92 2 58 1;
#X connect 92 3 66 1;
#X connect 92 4 74 1;
#X connect 92 5 82 1;
#X connect 92 6 90 1;
#X connect 93 0 38 1;
#X connect 93 1 46 1;
#X connect 93 2 54 1;
#X connect 93 3 62 1;
#X connect 93 4 70 1;
#X connect 93 5 78 1;
#X connect 93 6 86 1;
#X connect 94 0 35 1;
#X connect 94 1 43 1;
#X connect 94 2 51 1;
#X connect 94 3 59 1;
#X connect 94 4 67 1;
#X connect 94 5 75 1;
#X connect 94 6 83 1;
#X connect 95 0 35 2;
#X connect 95 1 43 2;
#X connect 95 2 51 2;
#X connect 95 3 59 2;
#X connect 95 4 67 2;
#X connect 95 5 75 2;
#X connect 95 6 83 2;
#X connect 96 0 40 1;
#X connect 96 1 48 1;
#X connect 96 2 56 1;
#X connect 96 3 64 1;
#X connect 96 4 72 1;
#X connect 96 5 80 1;
#X connect 96 6 88 1;
#X connect 97 0 140 1;
#X connect 97 1 210 1;
#X connect 97 5 212 1;
#X connect 97 6 211 1;
#X connect 98 0 140 2;
#X connect 98 1 210 2;
#X connect 98 5 212 2;
#X connect 98 6 211 2;
#X connect 99 0 39 1;
#X connect 99 1 47 1;
#X connect 99 2 55 1;
#X connect 99 3 63 1;
#X connect 99 4 71 1;
#X connect 99 5 79 1;
#X connect 99 6 87 1;
#X connect 100 0 41 1;
#X connect 100 1 49 1;
#X connect 100 2 57 1;
#X connect 100 3 65 1;
#X connect 100 4 73 1;
#X connect 100 5 81 1;
#X connect 100 6 89 1;
#X connect 101 0 202 1;
#X connect 101 1 203 1;
#X connect 101 2 204 1;
#X connect 101 3 205 1;
#X connect 101 4 206 1;
#X connect 101 5 207 1;
#X connect 101 6 208 1;
#X connect 102 0 201 0;
#X connect 103 0 140 3;
#X connect 103 1 210 3;
#X connect 103 5 212 3;
#X connect 103 6 211 3;
#X connect 104 0 110 0;
#X connect 104 0 128 0;
#X connect 104 1 113 0;
#X connect 104 1 116 0;
#X connect 104 2 119 0;
#X connect 104 2 122 0;
#X connect 104 3 125 0;
#X connect 104 3 192 0;
#X connect 104 4 174 0;
#X connect 104 4 177 0;
#X connect 104 5 180 0;
#X connect 104 5 183 0;
#X connect 104 6 186 0;
#X connect 104 6 189 0;
#X connect 105 0 9 0;
#X connect 106 0 105 1;
#X connect 107 0 106 0;
#X connect 108 0 6 0;
#X connect 109 0 108 1;
#X connect 110 0 109 0;
#X connect 111 0 8 0;
#X connect 112 0 111 1;
#X connect 113 0 112 0;
#X connect 114 0 7 0;
#X connect 115 0 114 1;
#X connect 116 0 115 0;
#X connect 117 0 20 0;
#X connect 118 0 117 1;
#X connect 119 0 118 0;
#X connect 120 0 25 0;
#X connect 121 0 120 1;
#X connect 122 0 121 0;
#X connect 123 0 28 0;
#X connect 124 0 123 1;
#X connect 125 0 124 0;
#X connect 126 0 105 0;
#X connect 127 0 126 1;
#X connect 128 0 127 0;
#X connect 129 0 3 0;
#X connect 129 0 139 0;
#X connect 130 0 144 0;
#X connect 131 0 145 0;
#X connect 132 0 146 0;
#X connect 133 0 147 0;
#X connect 134 0 148 0;
#X connect 135 0 149 0;
#X connect 136 0 150 0;
#X connect 137 0 130 1;
#X connect 137 1 131 1;
#X connect 137 2 132 1;
#X connect 137 3 133 1;
#X connect 137 4 134 1;
#X connect 137 5 135 1;
#X connect 137 6 136 1;
#X connect 140 0 39 0;
#X connect 142 0 24 0;
#X connect 142 1 32 0;
#X connect 142 2 31 0;
#X connect 142 3 34 0;
#X connect 142 4 91 0;
#X connect 142 5 93 0;
#X connect 142 6 94 0;
#X connect 142 7 95 0;
#X connect 142 8 92 0;
#X connect 142 9 96 0;
#X connect 142 10 103 0;
#X connect 142 11 97 0;
#X connect 142 12 98 0;
#X connect 142 13 99 0;
#X connect 142 14 100 0;
#X connect 142 15 101 0;
#X connect 142 16 137 0;
#X connect 142 17 104 0;
#X connect 142 18 143 0;
#X connect 142 19 16 0;
#X connect 142 20 209 0;
#X connect 143 0 144 1;
#X connect 143 1 145 1;
#X connect 143 2 146 1;
#X connect 143 3 147 1;
#X connect 143 4 148 1;
#X connect 143 5 149 1;
#X connect 143 6 150 1;
#X connect 144 0 126 0;
#X connect 144 1 108 0;
#X connect 145 0 111 0;
#X connect 145 1 114 0;
#X connect 146 0 117 0;
#X connect 146 1 120 0;
#X connect 147 0 123 0;
#X connect 147 1 190 0;
#X connect 148 0 172 0;
#X connect 148 1 175 0;
#X connect 149 0 178 0;
#X connect 149 1 181 0;
#X connect 150 0 184 0;
#X connect 150 1 187 0;
#X connect 151 0 9 1;
#X connect 152 0 9 1;
#X connect 153 0 23 1;
#X connect 154 0 151 1;
#X connect 155 0 154 0;
#X connect 156 0 153 1;
#X connect 157 0 156 0;
#X connect 158 0 152 1;
#X connect 159 0 158 0;
#X connect 160 0 23 1;
#X connect 161 0 160 1;
#X connect 162 0 161 0;
#X connect 163 0 9 1;
#X connect 164 0 163 1;
#X connect 165 0 164 0;
#X connect 166 0 23 1;
#X connect 167 0 166 1;
#X connect 168 0 167 0;
#X connect 169 0 23 0;
#X connect 170 0 169 1;
#X connect 171 0 170 0;
#X connect 172 0 151 0;
#X connect 173 0 172 1;
#X connect 174 0 173 0;
#X connect 175 0 153 0;
#X connect 176 0 175 1;
#X connect 177 0 176 0;
#X connect 178 0 152 0;
#X connect 179 0 178 1;
#X connect 180 0 179 0;
#X connect 181 0 160 0;
#X connect 182 0 181 1;
#X connect 183 0 182 0;
#X connect 184 0 163 0;
#X connect 185 0 184 1;
#X connect 186 0 185 0;
#X connect 187 0 166 0;
#X connect 188 0 187 1;
#X connect 189 0 188 0;
#X connect 190 0 169 0;
#X connect 191 0 190 1;
#X connect 192 0 191 0;
#X connect 195 0 36 0;
#X connect 196 0 44 0;
#X connect 197 0 52 0;
#X connect 198 0 60 0;
#X connect 199 0 68 0;
#X connect 200 0 76 0;
#X connect 201 0 84 0;
#X connect 202 0 130 0;
#X connect 203 0 131 0;
#X connect 204 0 132 0;
#X connect 205 0 133 0;
#X connect 206 0 134 0;
#X connect 207 0 135 0;
#X connect 208 0 136 0;
#X connect 209 0 141 0;
#X connect 210 0 47 0;
#X connect 211 0 87 0;
#X connect 212 0 79 0;
