#N canvas 4 45 2560 1326 12;
#X obj 262 119 inlet~;
#X obj 333 120 inlet;
#X obj 989 1169 outlet~;
#X obj 419 670 *~;
#X obj 1142 131 hradio 16 1 0 7 empty empty empty 0 -8 0 10 #fcfcfc #000000 #000000 0;
#X obj 1145 156 select 0 1 2 3 4 5 6, f 36;
#X obj 253 1035 *~;
#X text 378 844 arrancar;
#X obj 406 116 inlet;
#X obj 1138 101 inlet;
#X obj 274 365 == 0;
#X obj 337 366 == 0;
#X obj 283 454 ||;
#X floatatom 330 307 5 0 0 0 - - - 0;
#X obj 293 412 t b f;
#X obj 279 547 pack f 20;
#X obj 274 574 line~;
#X obj 385 485 != 1;
#X obj 393 522 pack f 20;
#X obj 402 557 line~;
#N canvas 326 157 1581 846 lfosin 0;
#X obj 145 213 inlet~;
#X obj 216 214 inlet;
#X obj 289 210 inlet;
#X obj 414 200 inlet;
#X obj 707 408 switch~;
#X floatatom 283 270 5 0 0 0 - - - 0;
#X obj 305 536 snapshot~;
#X obj 270 449 *~;
#X obj 250 592 else/pitch.shift~;
#X obj 283 337 line, f 11;
#X floatatom 232 361 5 0 0 0 - - - 0;
#X obj 284 369 osc~, f 8;
#X obj 353 690 outlet~;
#X obj 481 270 change;
#X obj 505 477 line~;
#X obj 364 643 *~;
#X obj 711 189 inlet;
#X msg 711 291 0;
#X obj 584 198 inlet;
#X msg 634 276 1;
#X obj 510 450 pack f 300;
#X obj 685 343 tgl 19 0 empty empty empty 0 -10 0 12 #fcfcfc #000000 #000000 0 1;
#X obj 712 246 delay 300 1 msec;
#X obj 284 302 pack f 51;
#X obj 322 494 metro 10;
#X connect 0 0 8 0;
#X connect 1 0 10 0;
#X connect 2 0 5 0;
#X connect 3 0 13 0;
#X connect 3 0 24 0;
#X connect 5 0 23 0;
#X connect 6 0 8 1;
#X connect 7 0 6 0;
#X connect 8 0 15 0;
#X connect 9 0 11 0;
#X connect 10 0 7 1;
#X connect 11 0 7 0;
#X connect 13 0 20 0;
#X connect 14 0 15 1;
#X connect 15 0 12 0;
#X connect 16 0 22 0;
#X connect 17 0 21 0;
#X connect 18 0 19 0;
#X connect 19 0 21 0;
#X connect 20 0 14 0;
#X connect 21 0 4 0;
#X connect 22 0 17 0;
#X connect 23 0 9 0;
#X connect 24 0 6 0;
#X restore 322 925 pd lfosin;
#N canvas 869 300 1581 846 lfosaw 0;
#X obj 124 96 inlet~;
#X obj 195 97 inlet;
#X obj 268 93 inlet;
#X obj 361 68 inlet;
#X obj 620 290 switch~;
#X floatatom 324 252 5 0 0 0 - - - 0;
#X obj 342 664 snapshot~;
#X obj 324 442 *~;
#X obj 291 733 else/pitch.shift~;
#X obj 340 318 line, f 15;
#X floatatom 295 371 5 0 0 0 - - - 0;
#X obj 341 283 pack f 50;
#X text 420 517 arrancar;
#X obj 417 820 outlet~;
#X obj 341 350 vsaw~, f 8;
#X obj 406 534 r en_osc3;
#X obj 402 128 change;
#X obj 542 605 line~;
#X obj 413 782 *~;
#X obj 536 83 inlet;
#X msg 600 226 0;
#X obj 446 78 inlet;
#X msg 508 209 1;
#X obj 547 578 pack f 300;
#X obj 568 172 delay 300 1 msec;
#X obj 362 622 metro 10;
#X connect 0 0 8 0;
#X connect 1 0 10 0;
#X connect 2 0 5 0;
#X connect 3 0 16 0;
#X connect 5 0 11 0;
#X connect 6 0 8 1;
#X connect 7 0 6 0;
#X connect 8 0 18 0;
#X connect 9 0 14 0;
#X connect 10 0 7 1;
#X connect 11 0 9 0;
#X connect 14 0 7 0;
#X connect 15 0 25 0;
#X connect 16 0 23 0;
#X connect 17 0 18 1;
#X connect 18 0 13 0;
#X connect 19 0 24 0;
#X connect 20 0 4 0;
#X connect 21 0 22 0;
#X connect 22 0 4 0;
#X connect 23 0 17 0;
#X connect 24 0 20 0;
#X connect 25 0 6 0;
#X restore 908 924 pd lfosaw;
#N canvas 983 352 1581 846 lfosquare 0;
#X obj 124 96 inlet~;
#X obj 195 97 inlet;
#X obj 268 93 inlet;
#X obj 387 94 inlet;
#X obj 532 281 switch~;
#X floatatom 333 255 5 0 0 0 - - - 0;
#X obj 360 538 snapshot~;
#X obj 327 423 *~;
#X obj 254 620 else/pitch.shift~;
#X obj 349 321 line, f 15;
#X floatatom 274 239 5 0 0 0 - - - 0;
#X obj 350 286 pack f 50;
#X text 433 411 arrancar;
#X obj 258 690 outlet~;
#X obj 350 353 square~, f 8;
#X obj 411 427 r en_osc4;
#X obj 425 142 change;
#X obj 560 479 line~;
#X obj 337 656 *~;
#X obj 535 87 inlet;
#X msg 581 204 0, f 2;
#X obj 480 113 inlet;
#X msg 529 211 1;
#X obj 565 452 pack f 300;
#X obj 572 146 delay 300 1 msec;
#X obj 377 496 metro 10;
#X connect 0 0 8 0;
#X connect 1 0 10 0;
#X connect 2 0 5 0;
#X connect 3 0 16 0;
#X connect 5 0 11 0;
#X connect 6 0 8 1;
#X connect 7 0 6 0;
#X connect 8 0 18 0;
#X connect 9 0 14 0;
#X connect 10 0 7 1;
#X connect 11 0 9 0;
#X connect 14 0 7 0;
#X connect 15 0 25 0;
#X connect 16 0 23 0;
#X connect 17 0 18 1;
#X connect 18 0 13 0;
#X connect 19 0 24 0;
#X connect 20 0 4 0;
#X connect 21 0 22 0;
#X connect 22 0 4 0;
#X connect 23 0 17 0;
#X connect 24 0 20 0;
#X connect 25 0 6 0;
#X restore 1130 879 pd lfosquare;
#X floatatom 273 307 5 0 0 0 - - - 0;
#N canvas 36 273 1581 846 lfovibrato 0;
#X obj 133 107 inlet~;
#X obj 206 108 inlet;
#X obj 279 104 inlet;
#X obj 369 95 inlet;
#X obj 543 359 switch~;
#X obj 145 556 outlet~;
#X floatatom 209 200 5 0 0 0 - - - 0;
#X floatatom 286 200 5 0 0 0 - - - 0;
#X obj 144 431 else/vibrato~, f 14;
#X obj 389 165 change;
#X obj 375 453 line~;
#X obj 145 506 *~;
#X msg 546 230 0;
#X obj 544 106 inlet;
#X obj 657 227 bng 19 250 50 0 empty empty empty 0 -10 0 12 #fcfcfc #000000 #000000;
#X obj 643 315 print;
#X obj 464 97 inlet;
#X msg 481 240 1;
#X obj 547 179 delay 300 1 msec;
#X obj 380 426 pack f 300;
#X connect 0 0 8 0;
#X connect 1 0 6 0;
#X connect 2 0 7 0;
#X connect 3 0 9 0;
#X connect 6 0 8 2;
#X connect 7 0 8 1;
#X connect 8 0 11 0;
#X connect 9 0 19 0;
#X connect 10 0 11 1;
#X connect 11 0 5 0;
#X connect 12 0 15 0;
#X connect 12 0 4 0;
#X connect 13 0 18 0;
#X connect 16 0 17 0;
#X connect 17 0 4 0;
#X connect 18 0 12 0;
#X connect 18 0 14 0;
#X connect 18 0 15 0;
#X connect 19 0 10 0;
#X restore 1399 840 pd lfovibrato;
#N canvas 285 285 1581 846 lfoenv 0;
#X obj 152 100 inlet~;
#X obj 219 99 inlet;
#X obj 292 95 inlet;
#X obj 359 91 inlet;
#X obj 563 312 switch~;
#X obj 340 679 outlet~;
#X floatatom 204 252 5 0 0 0 - - - 0;
#X obj 273 538 snapshot~;
#X obj 219 446 *~;
#X obj 221 582 else/pitch.shift~;
#X text 842 250 genera envelope con cada bang que le manda el metro;
#X obj 264 328 metro 500;
#X obj 262 378 envgen~ 1500 1 500 0;
#X obj 186 201 expr 3000-$f1;
#X text 867 168 mayor numero en metro -> mas lento;
#X text 732 380 tocar quiza sube en 1500ms baja en 500ms;
#X obj 405 131 change;
#X obj 584 482 line~;
#X obj 341 639 *~;
#X msg 558 230 0;
#X obj 545 100 inlet;
#X obj 478 107 inlet;
#X msg 501 233 1;
#X obj 557 200 delay 300 1 msec;
#X obj 589 455 pack f 300;
#X obj 315 491 metro 10;
#X connect 0 0 9 0;
#X connect 1 0 13 0;
#X connect 2 0 8 1;
#X connect 3 0 16 0;
#X connect 3 0 11 0;
#X connect 3 0 25 0;
#X connect 6 0 11 1;
#X connect 7 0 9 1;
#X connect 8 0 7 0;
#X connect 9 0 18 0;
#X connect 11 0 12 0;
#X connect 12 0 8 0;
#X connect 13 0 6 0;
#X connect 16 0 24 0;
#X connect 17 0 18 1;
#X connect 18 0 5 0;
#X connect 19 0 4 0;
#X connect 20 0 23 0;
#X connect 21 0 22 0;
#X connect 22 0 4 0;
#X connect 23 0 19 0;
#X connect 24 0 17 0;
#X connect 25 0 7 0;
#X restore 1685 808 pd lfoenv;
#N canvas 895 361 1581 846 lfosamphold 0;
#X obj 121 36 inlet~;
#X obj 188 35 inlet;
#X obj 261 31 inlet;
#X obj 352 29 inlet;
#X obj 526 242 switch~;
#X obj 156 792 outlet~;
#X obj 159 424 *~;
#X obj 92 664 else/pitch.shift~;
#X floatatom 152 294 5 0 0 0 - - - 0;
#X text 210 254 ruido cambia con el bang;
#X obj 180 486 samphold~;
#X obj 237 566 snapshot~;
#X floatatom 200 600 10 0 0 0 - - - 0;
#X text 496 279 dejar aqui frecuencia para variar el tiempo del muestreo? cambiando el parametro del phasor;
#X obj 243 207 nbx 5 14 -1e+37 1e+37 0 0 empty empty empty 0 -8 0 10 #fcfcfc #000000 #000000 0 256;
#X obj 244 332 noise~;
#X msg 239 287 seed 123;
#X text 108 311 tambien podria con oscnoise \, pero este parece mejor;
#X obj 315 388 phasor~ 0.25;
#X obj 237 177 expr 0.25+$f1*2;
#X obj 376 75 change;
#X obj 542 605 line~;
#X obj 264 726 *~;
#X msg 542 167 0;
#X obj 534 34 inlet;
#X obj 453 35 inlet;
#X msg 477 138 1;
#X obj 547 578 pack f 300;
#X obj 527 125 delay 300 1 msec;
#X obj 287 518 metro 10;
#X connect 0 0 7 0;
#X connect 1 0 8 0;
#X connect 2 0 19 0;
#X connect 3 0 20 0;
#X connect 3 0 29 0;
#X connect 6 0 10 0;
#X connect 7 0 22 0;
#X connect 8 0 6 1;
#X connect 10 0 11 0;
#X connect 11 0 12 0;
#X connect 12 0 7 1;
#X connect 14 0 18 0;
#X connect 15 0 6 0;
#X connect 16 0 15 0;
#X connect 18 0 10 1;
#X connect 19 0 14 0;
#X connect 20 0 27 0;
#X connect 21 0 22 1;
#X connect 22 0 5 0;
#X connect 23 0 4 0;
#X connect 24 0 28 0;
#X connect 25 0 26 0;
#X connect 26 0 4 0;
#X connect 27 0 21 0;
#X connect 28 0 23 0;
#X connect 29 0 11 0;
#X restore 1931 739 pd lfosamphold;
#X obj 384 869 r osc1;
#X obj 620 887 r osc2;
#X obj 921 873 r osc3;
#X obj 1121 822 r osc4;
#X obj 1385 786 r osc5;
#X obj 1672 755 r osc6;
#X obj 1860 672 r osc7;
#N canvas 404 300 1562 846 lfotri 1;
#X obj 120 73 inlet~;
#X obj 191 74 inlet;
#X obj 264 70 inlet;
#X obj 373 67 inlet;
#X obj 491 284 switch~;
#X floatatom 257 203 5 0 0 0 - - - 0;
#X obj 312 536 snapshot~;
#X obj 290 438 *~;
#X obj 257 592 else/pitch.shift~;
#X obj 256 275 line, f 10;
#X floatatom 219 356 5 0 0 0 - - - 0;
#X obj 257 240 pack f 50;
#X obj 364 706 outlet~;
#X obj 388 141 change;
#X obj 257 307 tri~, f 8;
#X obj 427 475 line~;
#X obj 356 656 *~;
#X obj 526 70 inlet;
#X obj 450 67 inlet;
#X msg 531 188 0, f 2;
#X msg 472 226 1;
#X obj 530 142 delay 300 1 msec;
#X obj 432 448 pack f 300;
#X obj 329 494 metro 10;
#X text 111 45 Audio;
#X text 177 45 Amplitud;
#X text 253 45 Frecuencia;
#X text 438 31 Enables;
#X connect 0 0 8 0;
#X connect 1 0 10 0;
#X connect 2 0 5 0;
#X connect 3 0 13 0;
#X connect 3 0 23 0;
#X connect 5 0 11 0;
#X connect 6 0 8 1;
#X connect 7 0 6 0;
#X connect 8 0 16 0;
#X connect 9 0 14 0;
#X connect 10 0 7 1;
#X connect 11 0 9 0;
#X connect 13 0 22 0;
#X connect 14 0 7 0;
#X connect 15 0 16 1;
#X connect 16 0 12 0;
#X connect 17 0 21 0;
#X connect 18 0 20 0;
#X connect 19 0 4 0;
#X connect 20 0 4 0;
#X connect 21 0 19 0;
#X connect 22 0 15 0;
#X connect 23 0 6 0;
#X restore 595 929 pd lfotri;
#X obj 443 899 r disable_osc1;
#X obj 699 895 r disable_osc2;
#X obj 988 889 r disable_osc3;
#X obj 1221 850 r disable_osc4;
#X obj 1508 813 r disable_osc5;
#X obj 1751 782 r disable_osc6;
#X obj 1988 695 r disable_osc7;
#X msg 1368 214 \; osc1 0 \; osc2 0 \; osc3 0 \; osc4 1 \; osc5 0 \; osc6 0 \; osc7 0 \; en_osc4 bang \; disable_osc3 bang;
#X msg 1543 222 \; osc1 0 \; osc2 0 \; osc3 0 \; osc4 0 \; osc5 1 \; osc6 0 \; osc7 0 \; en_osc5 bang \; disable_osc4 bang;
#X msg 1869 226 \; osc1 0 \; osc2 0 \; osc3 0 \; osc4 0 \; osc5 0 \; osc6 0 \; osc7 1 \; en_osc7 bang \; disable_osc6 bang;
#X msg 1703 228 \; osc1 0 \; osc2 0 \; osc3 0 \; osc4 0 \; osc5 0 \; osc6 1 \; osc7 0 \; en_osc6 bang \; disable_osc5 bang;
#X msg 1225 214 \; osc1 0 \; osc2 0 \; osc3 1 \; osc4 0 \; osc5 0 \; osc6 0 \; osc7 0 \; en_osc3 bang \; disable_osc2 bang;
#X msg 1068 211 \; osc1 0 \; osc2 1 \; osc3 0 \; osc4 0 \; osc5 0 \; osc6 0 \; osc7 0 \; en_osc2 bang \; disable_osc1 bang;
#X msg 919 212 \; osc1 1 \; osc2 0 \; osc3 0 \; osc4 0 \; osc5 0 \; osc6 0 \; osc7 0 \; en_osc1 bang \; disable_osc7 bang;
#X obj 444 871 r en_osc1;
#X obj 680 855 r en_osc2;
#X obj 975 856 r en_osc3;
#X obj 1178 826 r en_osc4;
#X obj 1441 794 r en_osc5;
#X obj 1736 740 r en_osc6;
#X obj 1913 675 r en_osc7;
#X obj 352 203 expr $f1*1000;
#X obj 550 212 expr $f1*10;
#X connect 0 0 3 0;
#X connect 0 0 6 0;
#X connect 1 0 56 0;
#X connect 3 0 20 0;
#X connect 3 0 21 0;
#X connect 3 0 22 0;
#X connect 3 0 25 0;
#X connect 3 0 26 0;
#X connect 3 0 34 0;
#X connect 3 0 24 0;
#X connect 4 0 5 0;
#X connect 5 0 48 0;
#X connect 5 1 47 0;
#X connect 5 2 46 0;
#X connect 5 3 42 0;
#X connect 5 4 43 0;
#X connect 5 5 45 0;
#X connect 5 6 44 0;
#X connect 6 0 2 0;
#X connect 8 0 57 0;
#X connect 9 0 4 0;
#X connect 10 0 12 0;
#X connect 11 0 14 0;
#X connect 12 0 17 0;
#X connect 12 0 15 0;
#X connect 13 0 11 0;
#X connect 14 0 12 0;
#X connect 14 1 12 1;
#X connect 15 0 16 0;
#X connect 16 0 6 1;
#X connect 17 0 18 0;
#X connect 18 0 19 0;
#X connect 19 0 3 1;
#X connect 20 0 2 0;
#X connect 21 0 2 0;
#X connect 22 0 2 0;
#X connect 23 0 10 0;
#X connect 24 0 2 0;
#X connect 25 0 2 0;
#X connect 26 0 2 0;
#X connect 27 0 20 3;
#X connect 28 0 34 3;
#X connect 29 0 21 3;
#X connect 30 0 22 3;
#X connect 31 0 24 3;
#X connect 32 0 25 3;
#X connect 33 0 26 3;
#X connect 34 0 2 0;
#X connect 35 0 20 5;
#X connect 36 0 34 5;
#X connect 37 0 21 5;
#X connect 38 0 22 5;
#X connect 39 0 24 5;
#X connect 40 0 25 5;
#X connect 41 0 26 5;
#X connect 49 0 20 4;
#X connect 50 0 34 4;
#X connect 51 0 21 4;
#X connect 52 0 22 4;
#X connect 53 0 24 4;
#X connect 54 0 25 4;
#X connect 55 0 26 4;
#X connect 56 0 13 0;
#X connect 56 0 20 1;
#X connect 56 0 34 1;
#X connect 56 0 21 1;
#X connect 56 0 22 1;
#X connect 56 0 26 1;
#X connect 56 0 25 1;
#X connect 56 0 24 1;
#X connect 57 0 23 0;
#X connect 57 0 26 2;
#X connect 57 0 25 2;
#X connect 57 0 22 2;
#X connect 57 0 34 2;
#X connect 57 0 21 2;
#X connect 57 0 24 2;
#X connect 57 0 20 2;
