#N canvas 224 224 1257 772 12;
#X obj 163 93 inlet~;
#X obj 181 630 outlet~;
#X obj 307 94 inlet;
#X obj 315 232 nbx 5 14 -1e+37 1e+37 0 0 empty empty empty 0 -8 0 10 #dcdcdc #000000 #000000 0 256;
#X text 375 244 transposition;
#X text 779 155 tambien podria con oscnoise \, pero este parece mejor;
#X obj 104 493 *~;
#X obj 145 384 pack f 20;
#X obj 140 411 line~;
#X obj 262 332 != 1;
#X obj 261 286 == 0;
#X obj 248 498 *~;
#X obj 246 371 pack f 20;
#X obj 258 410 line~;
#X obj 304 171 expr $f1*1000;
#X obj 253 557 else/pitch.shift~;
#X connect 0 0 6 0;
#X connect 0 0 11 0;
#X connect 2 0 14 0;
#X connect 3 0 10 0;
#X connect 3 0 15 1;
#X connect 6 0 1 0;
#X connect 7 0 8 0;
#X connect 8 0 6 1;
#X connect 9 0 12 0;
#X connect 10 0 7 0;
#X connect 10 0 9 0;
#X connect 11 0 15 0;
#X connect 12 0 13 0;
#X connect 13 0 11 1;
#X connect 14 0 3 0;
#X connect 15 0 1 0;
