#N canvas 373 318 855 539 12;
#X floatatom 216 220 8 1 10000 0 - - - 0;
#X floatatom 303 225 8 1 10000 0 - - - 0;
#X obj 208 252 else/f2s~;
#X obj 296 252 else/f2s~;
#X obj 128 170 inlet~;
#X obj 189 381 outlet~;
#X obj 217 176 inlet;
#X obj 318 175 inlet;
#X obj 184 324 else/crush~;
#X text 313 152 decimation;
#X text 201 150 bit crushing;
#X connect 0 0 2 0;
#X connect 1 0 3 0;
#X connect 2 0 8 1;
#X connect 3 0 8 2;
#X connect 4 0 8 0;
#X connect 6 0 0 0;
#X connect 7 0 1 0;
#X connect 8 0 5 0;
