#N canvas 160 160 1687 769 12;
#X obj 342 152 inlet~;
#X obj 339 502 outlet~;
#X floatatom 478 238 7 -10 10 0 - - - 0;
#X obj 476 295 line~;
#X msg 476 268 \$1 20;
#X obj 658 299 cnv 19 250 110 empty empty empty 20 12 0 12 #e0e0e0 #404040 0;
#N canvas 0 50 450 250 (subpatch) 0;
#X array \$0-overdrive 441 float 0;
#A color 0;
#A width 1;
#X coords 0 1 440 -1 252 112 1 0 0;
#X restore 653 301 graph;
#X obj 369 386 metro 250;
#X obj 356 410 tabwrite~ \$0-overdrive;
#X obj 369 365 loadbang;
#X obj 340 440 clip~ -1 1;
#X obj 478 154 inlet;
#X obj 478 197 expr 1+$f1*50;
#X obj 340 339 cyclone/overdrive~ 1;
#X connect 0 0 13 0;
#X connect 2 0 4 0;
#X connect 3 0 13 1;
#X connect 4 0 3 0;
#X connect 7 0 8 0;
#X connect 9 0 7 0;
#X connect 10 0 1 0;
#X connect 11 0 12 0;
#X connect 12 0 2 0;
#X connect 13 0 8 0;
#X connect 13 0 10 0;
