#N canvas 62 103 2109 1221 12;
#X obj 815 539 +~;
#X obj 1365 291 expr if($f1 > 0 \, 1 \, 0);
#X text 1628 166 CAMBIAR 4 POR MAS ALTO MAS SUAVE AL PRJNCIPOO;
#X obj 720 315 expr if($f1 <= 0 \, 1 \, 0);
#X obj 340 356 else/lop2~;
#X obj 822 616 outlet~;
#X obj 920 127 inlet slider;
#X text -59 273 el <= para PODER MANEJAR EL 0 y no se corte;
#X obj 694 122 inlet~ audio;
#X obj 719 375 pack f 20;
#X obj 721 416 line~;
#X obj 1376 348 pack f 20;
#X obj 1371 375 line~;
#X obj 930 477 *~, f 5;
#X obj 970 361 hip.bw~;
#X obj 466 312 expr if($f1 <= 0 \, 20200 - (pow(abs($f1) \, 2) * 20000) \, 0), f 31;
#X obj 962 305 expr if($f1 > 0 \, (20+pow($f1 \, 4) * 19000) \, 20000);
#X text 27 84 200200 para que no llegue a 0;
#X obj 634 477 *~;
#X obj 819 93 loadbang;
#X msg 820 131 1;
#X connect 0 0 5 0;
#X connect 1 0 11 0;
#X connect 3 0 9 0;
#X connect 4 0 18 0;
#X connect 6 0 3 0;
#X connect 6 0 1 0;
#X connect 6 0 15 0;
#X connect 6 0 16 0;
#X connect 8 0 4 0;
#X connect 8 0 14 0;
#X connect 9 0 10 0;
#X connect 10 0 18 1;
#X connect 11 0 12 0;
#X connect 12 0 13 1;
#X connect 13 0 0 1;
#X connect 14 0 13 0;
#X connect 15 0 4 1;
#X connect 16 0 14 1;
#X connect 18 0 0 0;
#X connect 19 0 20 0;
#X connect 20 0 9 0;
